<?xml version="1.0" standalone="no"?>
<!DOCTYPE svg PUBLIC "-//W3C//DTD SVG 20010904//EN"
 "http://www.w3.org/TR/2001/REC-SVG-20010904/DTD/svg10.dtd">
<svg version="1.0" xmlns="http://www.w3.org/2000/svg"
 width="500.000000pt" height="500.000000pt" viewBox="0 0 500.000000 500.000000"
 preserveAspectRatio="xMidYMid meet">
<metadata>
Created by potrace 1.11, written by Peter Selinger 2001-2013
</metadata>
<g transform="translate(0.000000,500.000000) scale(0.100000,-0.100000)"
fill="#000000" stroke="none">
<path d="M0 2500 l0 -2500 2500 0 2500 0 0 2500 0 2500 -2500 0 -2500 0 0
-2500z m2400 790 l0 -200 -300 0 -300 0 0 -790 0 -790 -230 0 -230 0 0 790 0
790 -305 0 -305 0 0 200 0 200 835 0 835 0 0 -200z m1505 165 c33 -16 87 -57
121 -90 162 -160 202 -422 97 -629 -31 -61 -114 -150 -171 -183 l-44 -26 71
-33 c80 -37 178 -123 218 -192 62 -105 86 -265 59 -391 -37 -177 -174 -305
-396 -372 -74 -23 -85 -23 -657 -27 l-583 -3 0 991 0 991 613 -3 612 -3 60
-30z"/>
<path d="M3090 2895 l0 -205 233 0 c138 0 248 5 272 11 22 6 56 28 76 48 91
91 66 277 -44 330 -40 20 -60 21 -290 21 l-247 0 0 -205z"/>
<path d="M3090 2115 l0 -215 278 0 c268 0 279 1 322 23 26 13 57 40 75 65 27
39 30 51 30 121 0 69 -3 83 -30 126 -20 32 -45 56 -74 72 -43 22 -50 23 -323
23 l-278 0 0 -215z"/>
</g>
</svg>
